{
  "asset": {
    "generator": "UnityGltf 2.17.8, Unity 6000.2.8f1, URP",
    "version": "2.0"
  },
  "extensionsUsed": [
    "KHR_texture_transform"
  ],
  "scene": 0,
  "scenes": [
    {
      "nodes": [
        0,
        23
      ],
      "name": "SampleScene"
    }
  ],
  "accessors": [
    {
      "bufferView": 0,
      "componentType": 5126,
      "count": 745,
      "type": "VEC3",
      "max": [
        0.29030212759971619,
        1.2836320400238037,
        0.38903498649597168
      ],
      "min": [
        -0.29030230641365051,
        -4.1184485155554285E-08,
        -0.51335197687149048
      ]
    },
    {
      "bufferView": 1,
      "componentType": 5126,
      "count": 745,
      "type": "VEC3",
      "max": [
        0.99994885921478271,
        0.99998915195465088,
        0.99980205297470093
      ],
      "min": [
        -0.99994885921478271,
        -1.0,
        -0.99862933158874512
      ]
    },
    {
      "bufferView": 2,
      "componentType": 5126,
      "count": 745,
      "type": "VEC4",
      "max": [
        0.99999022483825684,
        0.99994146823883057,
        0.99978429079055786,
        1.0
      ],
      "min": [
        -1.0,
        -1.0,
        -0.98818248510360718,
        -1.0
      ]
    },
    {
      "bufferView": 3,
      "componentType": 5126,
      "count": 745,
      "type": "VEC2",
      "max": [
        0.886879563331604,
        0.52938473224639893
      ],
      "min": [
        0.030442813411355019,
        0.2253645658493042
      ]
    },
    {
      "bufferView": 4,
      "componentType": 5123,
      "count": 2454,
      "type": "SCALAR",
      "max": [
        744.0
      ],
      "min": [
        0.0
      ]
    },
    {
      "bufferView": 5,
      "componentType": 5126,
      "count": 121,
      "type": "VEC3",
      "max": [
        5.0,
        1.1102230246251565E-16,
        5.0
      ],
      "min": [
        -5.0,
        -1.1102230246251565E-16,
        -5.0
      ]
    },
    {
      "bufferView": 6,
      "componentType": 5126,
      "count": 121,
      "type": "VEC3",
      "max": [
        0.0,
        1.0,
        0.0
      ],
      "min": [
        0.0,
        1.0,
        0.0
      ]
    },
    {
      "bufferView": 7,
      "componentType": 5126,
      "count": 121,
      "type": "VEC4",
      "max": [
        1.0,
        0.0,
        0.0,
        1.0
      ],
      "min": [
        1.0,
        0.0,
        0.0,
        1.0
      ]
    },
    {
      "bufferView": 8,
      "componentType": 5126,
      "count": 121,
      "type": "VEC2",
      "max": [
        1.0,
        1.0
      ],
      "min": [
        0.0,
        0.0
      ]
    },
    {
      "bufferView": 9,
      "componentType": 5121,
      "count": 600,
      "type": "SCALAR",
      "max": [
        120.0
      ],
      "min": [
        0.0
      ]
    },
    {
      "bufferView": 10,
      "componentType": 5126,
      "count": 20,
      "type": "MAT4"
    },
    {
      "bufferView": 11,
      "componentType": 5123,
      "count": 745,
      "type": "VEC4",
      "max": [
        19.0,
        19.0,
        19.0,
        19.0
      ],
      "min": [
        1.0,
        0.0,
        0.0,
        0.0
      ]
    },
    {
      "bufferView": 12,
      "componentType": 5126,
      "count": 745,
      "type": "VEC4",
      "max": [
        1.0,
        0.42053493857383728,
        0.30095797777175903,
        0.21566566824913025
      ],
      "min": [
        0.30863767862319946,
        0.0,
        0.0,
        0.0
      ]
    }
  ],
  "buffers": [
    {
      "uri": "SampleScene.bin",
      "byteLength": 66236
    }
  ],
  "bufferViews": [
    {
      "buffer": 0,
      "byteLength": 8940,
      "byteStride": 12,
      "target": 34962
    },
    {
      "buffer": 0,
      "byteOffset": 8940,
      "byteLength": 8940,
      "byteStride": 12,
      "target": 34962
    },
    {
      "buffer": 0,
      "byteOffset": 17880,
      "byteLength": 11920,
      "target": 34962
    },
    {
      "buffer": 0,
      "byteOffset": 29800,
      "byteLength": 5960,
      "target": 34962
    },
    {
      "buffer": 0,
      "byteOffset": 35760,
      "byteLength": 4908,
      "target": 34963
    },
    {
      "buffer": 0,
      "byteOffset": 40668,
      "byteLength": 1452,
      "byteStride": 12,
      "target": 34962
    },
    {
      "buffer": 0,
      "byteOffset": 42120,
      "byteLength": 1452,
      "byteStride": 12,
      "target": 34962
    },
    {
      "buffer": 0,
      "byteOffset": 43572,
      "byteLength": 1936,
      "target": 34962
    },
    {
      "buffer": 0,
      "byteOffset": 45508,
      "byteLength": 968,
      "target": 34962
    },
    {
      "buffer": 0,
      "byteOffset": 46476,
      "byteLength": 600,
      "target": 34963
    },
    {
      "buffer": 0,
      "byteOffset": 47076,
      "byteLength": 1280
    },
    {
      "buffer": 0,
      "byteOffset": 48356,
      "byteLength": 5960,
      "target": 34962
    },
    {
      "buffer": 0,
      "byteOffset": 54316,
      "byteLength": 11920,
      "target": 34962
    }
  ],
  "images": [
    {
      "uri": "Texture.jpg",
      "name": "Texture"
    }
  ],
  "materials": [
    {
      "pbrMetallicRoughness": {
        "baseColorTexture": {
          "index": 0,
          "extensions": {
            "KHR_texture_transform": {
              "texCoord": 0
            }
          }
        },
        "metallicFactor": 0.0,
        "roughnessFactor": 0.55278640985488892
      },
      "name": "Material"
    },
    {
      "pbrMetallicRoughness": {
        "baseColorFactor": [
          0.214041144,
          0.214041144,
          0.214041144,
          1.0
        ],
        "metallicFactor": 0.0,
        "roughnessFactor": 0.5
      },
      "name": "Lit"
    }
  ],
  "meshes": [
    {
      "primitives": [
        {
          "attributes": {
            "POSITION": 0,
            "NORMAL": 1,
            "TANGENT": 2,
            "TEXCOORD_0": 3,
            "JOINTS_0": 11,
            "WEIGHTS_0": 12
          },
          "indices": 4,
          "material": 0
        }
      ],
      "name": "Pinguin_001"
    },
    {
      "primitives": [
        {
          "attributes": {
            "POSITION": 5,
            "NORMAL": 6,
            "TANGENT": 7,
            "TEXCOORD_0": 8
          },
          "indices": 9,
          "material": 1
        }
      ],
      "name": "Plane"
    }
  ],
  "nodes": [
    {
      "children": [
        1,
        2
      ],
      "name": "Pinguin_001"
    },
    {
      "skin": 0,
      "mesh": 0,
      "scale": [
        1.0,
        0.9999999,
        0.9999999
      ],
      "translation": [
        -5.187389E-16,
        1.37835754E-09,
        -7.96280653E-10
      ],
      "name": "Pinguin_001"
    },
    {
      "children": [
        3
      ],
      "name": "Pinguin_001_rig"
    },
    {
      "children": [
        4
      ],
      "rotation": [
        1.629207E-07,
        -1.0,
        4.37114132E-08,
        1.33158053E-07
      ],
      "name": "Root"
    },
    {
      "children": [
        5,
        7,
        17,
        20
      ],
      "rotation": [
        0.115991578,
        0.06928333,
        -0.008110925,
        0.990797639
      ],
      "scale": [
        0.9999999,
        1.0,
        1.00000012
      ],
      "translation": [
        -1.592143E-08,
        0.2790561,
        0.201716736
      ],
      "name": "spine.002"
    },
    {
      "children": [
        6
      ],
      "rotation": [
        0.9288638,
        4.27994458E-08,
        2.38401512E-07,
        0.37042138
      ],
      "scale": [
        1.0,
        0.9999998,
        0.9999995
      ],
      "translation": [
        -8.153254E-09,
        -0.0920401141,
        0.0329261459
      ],
      "name": "spine.001"
    },
    {
      "rotation": [
        -0.206436381,
        -1.15530639E-07,
        -6.67813964E-08,
        0.9784601
      ],
      "scale": [
        1.0,
        0.9999999,
        0.99999994
      ],
      "translation": [
        4.54785E-09,
        0.133805782,
        -3.853347E-08
      ],
      "name": "spine"
    },
    {
      "children": [
        8
      ],
      "rotation": [
        6.787747E-08,
        -0.0638012961,
        -5.256669E-09,
        0.997962654
      ],
      "scale": [
        1.00000012,
        1.00000024,
        1.0
      ],
      "translation": [
        -2.26107488E-09,
        0.225323468,
        -2.6775524E-09
      ],
      "name": "spine.003"
    },
    {
      "children": [
        9,
        12,
        15
      ],
      "rotation": [
        -0.00156873476,
        -0.0365537256,
        0.00296821678,
        0.99932605
      ],
      "scale": [
        1.0,
        0.999999166,
        1.0
      ],
      "translation": [
        2.79396772E-09,
        0.2342096,
        1.77606125E-08
      ],
      "name": "spine.004"
    },
    {
      "children": [
        10
      ],
      "rotation": [
        0.7841101,
        -0.458155632,
        -0.168482319,
        -0.383247256
      ],
      "scale": [
        1.00000024,
        0.9999995,
        0.9999994
      ],
      "translation": [
        -0.07591039,
        0.216167033,
        -0.106498234
      ],
      "name": "fin.L"
    },
    {
      "children": [
        11
      ],
      "rotation": [
        -0.233273968,
        0.07654236,
        -0.295189232,
        0.9233569
      ],
      "scale": [
        0.99999994,
        1.0,
        1.000001
      ],
      "translation": [
        1.1920929E-07,
        0.204392254,
        4.47034836E-08
      ],
      "name": "fin.001.L"
    },
    {
      "rotation": [
        0.000128444968,
        0.000235286745,
        -0.0720225945,
        0.997402966
      ],
      "scale": [
        0.9999999,
        1.00000012,
        0.9999991
      ],
      "translation": [
        0.0,
        0.266664416,
        1.62981451E-08
      ],
      "name": "fin.002.L"
    },
    {
      "children": [
        13
      ],
      "rotation": [
        0.783462,
        0.459263027,
        0.169023409,
        -0.383008927
      ],
      "scale": [
        1.00000083,
        0.9999997,
        1.00000012
      ],
      "translation": [
        0.0759104043,
        0.216167167,
        -0.106498204
      ],
      "name": "fin.R"
    },
    {
      "children": [
        14
      ],
      "rotation": [
        -0.233274147,
        -0.07654217,
        0.295189351,
        0.9233568
      ],
      "scale": [
        0.999999642,
        1.0,
        1.0000006
      ],
      "translation": [
        -5.96046448E-08,
        0.204392329,
        -1.22468919E-07
      ],
      "name": "fin.001.R"
    },
    {
      "rotation": [
        0.000128457541,
        -0.00023547998,
        0.07202276,
        0.997402966
      ],
      "scale": [
        1.00000012,
        1.00000024,
        0.9999993
      ],
      "translation": [
        -5.401671E-08,
        0.266664147,
        2.42143869E-08
      ],
      "name": "fin.002.R"
    },
    {
      "children": [
        16
      ],
      "rotation": [
        -0.272886574,
        0.0903018862,
        -0.0169945676,
        0.957648
      ],
      "scale": [
        0.99999994,
        1.0,
        1.00000048
      ],
      "translation": [
        -4.656613E-09,
        0.219653815,
        -5.70435077E-09
      ],
      "name": "spine.005"
    },
    {
      "rotation": [
        -0.318598539,
        -0.00049659895,
        -0.00016429495,
        0.9478896
      ],
      "scale": [
        1.001361,
        1.00136077,
        1.00136065
      ],
      "translation": [
        0.000455291942,
        0.2120358,
        0.000455408823
      ],
      "name": "scull"
    },
    {
      "children": [
        18
      ],
      "rotation": [
        0.9589792,
        -0.0511941239,
        0.01064695,
        -0.2786122
      ],
      "scale": [
        1.00000012,
        0.9999997,
        0.9999997
      ],
      "translation": [
        -0.12364427,
        -0.0292310361,
        0.021184558
      ],
      "name": "thigh.L"
    },
    {
      "children": [
        19
      ],
      "rotation": [
        -0.8365771,
        -1.11325638E-09,
        5.566268E-09,
        0.547849238
      ],
      "scale": [
        1.0,
        1.00000036,
        1.00000024
      ],
      "translation": [
        2.79396772E-09,
        0.224732444,
        1.3038516E-08
      ],
      "name": "shin.L"
    },
    {
      "rotation": [
        0.9768201,
        0.07456544,
        -0.06508353,
        0.189806923
      ],
      "scale": [
        0.9999998,
        1.00000024,
        0.9999996
      ],
      "translation": [
        -1.08266249E-08,
        0.199857473,
        -5.58793545E-09
      ],
      "name": "foot.L"
    },
    {
      "children": [
        21
      ],
      "rotation": [
        -0.822850168,
        -0.07308142,
        -0.04759198,
        0.561526239
      ],
      "scale": [
        0.99999994,
        0.999999762,
        0.999999642
      ],
      "translation": [
        0.123644255,
        -0.029231023,
        0.0211846
      ],
      "name": "thigh.R"
    },
    {
      "children": [
        22
      ],
      "rotation": [
        -0.5843209,
        -1.06155156E-08,
        -3.873231E-09,
        0.8115227
      ],
      "scale": [
        0.99999994,
        0.999999762,
        1.0000006
      ],
      "translation": [
        -8.32369551E-09,
        0.224732473,
        9.080395E-09
      ],
      "name": "shin.R"
    },
    {
      "rotation": [
        0.681803942,
        0.09212292,
        -0.104809605,
        0.7181028
      ],
      "scale": [
        0.9999997,
        0.999999344,
        1.00000036
      ],
      "translation": [
        1.62399374E-08,
        0.199857473,
        -9.313226E-10
      ],
      "name": "foot.R"
    },
    {
      "mesh": 1,
      "name": "Plane"
    }
  ],
  "samplers": [
    {
      "minFilter": 9987
    }
  ],
  "skins": [
    {
      "inverseBindMatrices": 10,
      "joints": [
        3,
        4,
        20,
        21,
        22,
        5,
        6,
        7,
        8,
        12,
        13,
        14,
        15,
        16,
        9,
        10,
        11,
        17,
        18,
        19
      ]
    }
  ],
  "textures": [
    {
      "sampler": 0,
      "source": 0,
      "name": "Texture"
    }
  ]
}